<svg width="100px" height="100px" viewBox="0 0 8 8" xmlns="http://www.w3.org/2000/svg" stroke-width="0.3" stroke="#000000" fill="none">
  <path d="M6.5 3.397v3.197a0.365 0.365 0 0 1 -0.375 0.355H1.875a0.365 0.365 0 0 1 -0.375 -0.355V3.396" fill="#FFFFFF"/>
  <path d="M1.055 2.397s-0.138 0.97 0.806 1.117a0.896 0.896 0 0 0 0.762 -0.25A0.929 0.929 0 0 0 4 3.25a0.925 0.925 0 0 0 0.625 0.311 1.475 1.475 0 0 0 0.738 -0.269 0.833 0.833 0 0 0 0.584 0.269 1 1 0 0 0 0.991 -1.163L6.348 1.131a0.125 0.125 0 0 0 -0.117 -0.081H1.75a0.125 0.125 0 0 0 -0.117 0.083Z" fill="#FFFFFF"/>
  <path d="M3.283 6.94L3.283 4.806L4.73 4.806L4.73 6.94" fill="none"/>
  <path d="M1.055 2.397L6.942 2.397"/>
  <path d="M2.63 2.397L2.63 1.05"/>
  <path d="M4.006 2.397L4.006 1.05"/>
  <path d="M5.376 2.397L5.376 1.05"/>
</svg>
